<svg xmlns="http://www.w3.org/2000/svg" viewBox="0 0 229.238 229.238">
    <path d="M220.228 172.242c-20.606-17.82-39.675-42.962-39.675-105.734 0-36.353-29.576-65.928-65.93-65.928-36.359 0-65.939 29.575-65.939 65.928 0 62.829-19.062 87.946-39.686 105.751C3.28 177.239 0 184.411 0 191.937a7.5 7.5 0 0 0 7.5 7.5h71.175c3.472 16.663 18.268 29.222 35.944 29.222s32.473-12.558 35.944-29.222h71.175a7.5 7.5 0 0 0 7.5-7.5 25.96 25.96 0 0 0-9.01-19.695zm-105.609 41.417c-9.34 0-17.321-5.929-20.381-14.222H135c-3.06 8.293-11.041 14.222-20.381 14.222zm-96.665-29.222c.273-.296.564-.578.871-.845 31.443-27.146 44.858-62.162 44.858-117.084 0-28.082 22.852-50.928 50.939-50.928 28.083 0 50.93 22.846 50.93 50.928 0 54.872 13.417 89.887 44.876 117.091.307.265.598.544.872.838H17.954z"/>
</svg>
